solid Default
  facet normal -1.000000e+00 -0.000000e+00 -0.000000e+00
    outer loop
      vertex -1.450000e+01 -9.205001e+00 0.000000e+00
      vertex -1.450000e+01 -9.205001e+00 1.450000e+01
      vertex -1.450000e+01 9.205001e+00 0.000000e+00
    endloop
  endfacet
  facet normal -1.000000e+00 0.000000e+00 0.000000e+00
    outer loop
      vertex -1.450000e+01 9.205001e+00 0.000000e+00
      vertex -1.450000e+01 -9.205001e+00 1.450000e+01
      vertex -1.450000e+01 9.205001e+00 1.450000e+01
    endloop
  endfacet
  facet normal 0.000000e+00 -1.000000e+00 0.000000e+00
    outer loop
      vertex -1.450000e+01 -9.205001e+00 1.450000e+01
      vertex -1.450000e+01 -9.205001e+00 0.000000e+00
      vertex 1.450000e+01 -9.205001e+00 0.000000e+00
    endloop
  endfacet
  facet normal 0.000000e+00 -1.000000e+00 0.000000e+00
    outer loop
      vertex 1.450000e+01 -9.205001e+00 1.450000e+01
      vertex -1.450000e+01 -9.205001e+00 1.450000e+01
      vertex 1.450000e+01 -9.205001e+00 0.000000e+00
    endloop
  endfacet
  facet normal -0.000000e+00 -0.000000e+00 -1.000000e+00
    outer loop
      vertex -1.450000e+01 -9.205001e+00 0.000000e+00
      vertex -1.450000e+01 9.205001e+00 0.000000e+00
      vertex 1.450000e+01 -9.205001e+00 0.000000e+00
    endloop
  endfacet
  facet normal 0.000000e+00 0.000000e+00 -1.000000e+00
    outer loop
      vertex 1.450000e+01 -9.205001e+00 0.000000e+00
      vertex -1.450000e+01 9.205001e+00 0.000000e+00
      vertex 1.450000e+01 9.205001e+00 0.000000e+00
    endloop
  endfacet
  facet normal 0.000000e+00 1.000000e+00 0.000000e+00
    outer loop
      vertex -1.450000e+01 9.205001e+00 0.000000e+00
      vertex -1.450000e+01 9.205001e+00 1.450000e+01
      vertex 1.450000e+01 9.205001e+00 0.000000e+00
    endloop
  endfacet
  facet normal 0.000000e+00 1.000000e+00 0.000000e+00
    outer loop
      vertex 1.450000e+01 9.205001e+00 0.000000e+00
      vertex -1.450000e+01 9.205001e+00 1.450000e+01
      vertex 1.450000e+01 9.205001e+00 1.450000e+01
    endloop
  endfacet
  facet normal 0.000000e+00 0.000000e+00 1.000000e+00
    outer loop
      vertex -8.070000e+00 -4.220000e+00 1.450000e+01
      vertex -1.450000e+01 -9.205001e+00 1.450000e+01
      vertex 1.450000e+01 -9.205001e+00 1.450000e+01
    endloop
  endfacet
  facet normal 0.000000e+00 0.000000e+00 1.000000e+00
    outer loop
      vertex -1.450000e+01 9.205001e+00 1.450000e+01
      vertex -1.450000e+01 -9.205001e+00 1.450000e+01
      vertex -8.070000e+00 -4.220000e+00 1.450000e+01
    endloop
  endfacet
  facet normal 0.000000e+00 0.000000e+00 1.000000e+00
    outer loop
      vertex -8.070000e+00 3.780000e+00 1.450000e+01
      vertex 8.070000e+00 3.780000e+00 1.450000e+01
      vertex -1.450000e+01 9.205001e+00 1.450000e+01
    endloop
  endfacet
  facet normal 0.000000e+00 0.000000e+00 1.000000e+00
    outer loop
      vertex -1.450000e+01 9.205001e+00 1.450000e+01
      vertex -8.070000e+00 -4.220000e+00 1.450000e+01
      vertex -8.070000e+00 3.780000e+00 1.450000e+01
    endloop
  endfacet
  facet normal 0.000000e+00 0.000000e+00 1.000000e+00
    outer loop
      vertex 1.450000e+01 9.205001e+00 1.450000e+01
      vertex 8.070000e+00 3.780000e+00 1.450000e+01
      vertex 1.450000e+01 -9.205001e+00 1.450000e+01
    endloop
  endfacet
  facet normal 0.000000e+00 0.000000e+00 1.000000e+00
    outer loop
      vertex 1.450000e+01 9.205001e+00 1.450000e+01
      vertex -1.450000e+01 9.205001e+00 1.450000e+01
      vertex 8.070000e+00 3.780000e+00 1.450000e+01
    endloop
  endfacet
  facet normal 0.000000e+00 0.000000e+00 1.000000e+00
    outer loop
      vertex 8.070000e+00 3.780000e+00 1.450000e+01
      vertex 8.070000e+00 -4.220000e+00 1.450000e+01
      vertex 1.450000e+01 -9.205001e+00 1.450000e+01
    endloop
  endfacet
  facet normal 0.000000e+00 0.000000e+00 1.000000e+00
    outer loop
      vertex 8.070000e+00 -4.220000e+00 1.450000e+01
      vertex -8.070000e+00 -4.220000e+00 1.450000e+01
      vertex 1.450000e+01 -9.205001e+00 1.450000e+01
    endloop
  endfacet
  facet normal 1.000000e+00 0.000000e+00 0.000000e+00
    outer loop
      vertex 1.450000e+01 -9.205001e+00 1.450000e+01
      vertex 1.450000e+01 -9.205001e+00 0.000000e+00
      vertex 1.450000e+01 9.205001e+00 0.000000e+00
    endloop
  endfacet
  facet normal 1.000000e+00 0.000000e+00 0.000000e+00
    outer loop
      vertex 1.450000e+01 9.205001e+00 1.450000e+01
      vertex 1.450000e+01 -9.205001e+00 1.450000e+01
      vertex 1.450000e+01 9.205001e+00 0.000000e+00
    endloop
  endfacet
  facet normal 1.000000e+00 0.000000e+00 0.000000e+00
    outer loop
      vertex -8.070000e+00 3.780000e+00 4.060000e+00
      vertex -8.070000e+00 3.780000e+00 1.450000e+01
      vertex -8.070000e+00 -4.220000e+00 1.450000e+01
    endloop
  endfacet
  facet normal 1.000000e+00 0.000000e+00 0.000000e+00
    outer loop
      vertex -8.070000e+00 -4.220000e+00 4.060000e+00
      vertex -8.070000e+00 3.780000e+00 4.060000e+00
      vertex -8.070000e+00 -4.220000e+00 1.450000e+01
    endloop
  endfacet
  facet normal 0.000000e+00 1.000000e+00 0.000000e+00
    outer loop
      vertex 8.070000e+00 -4.220000e+00 1.450000e+01
      vertex 8.070000e+00 -4.220000e+00 4.060000e+00
      vertex -8.070000e+00 -4.220000e+00 1.450000e+01
    endloop
  endfacet
  facet normal 0.000000e+00 1.000000e+00 0.000000e+00
    outer loop
      vertex -8.070000e+00 -4.220000e+00 1.450000e+01
      vertex 8.070000e+00 -4.220000e+00 4.060000e+00
      vertex -8.070000e+00 -4.220000e+00 4.060000e+00
    endloop
  endfacet
  facet normal -1.000000e+00 0.000000e+00 0.000000e+00
    outer loop
      vertex 8.070000e+00 3.780000e+00 1.450000e+01
      vertex 8.070000e+00 3.780000e+00 4.060000e+00
      vertex 8.070000e+00 -4.220000e+00 1.450000e+01
    endloop
  endfacet
  facet normal -1.000000e+00 0.000000e+00 0.000000e+00
    outer loop
      vertex 8.070000e+00 -4.220000e+00 1.450000e+01
      vertex 8.070000e+00 3.780000e+00 4.060000e+00
      vertex 8.070000e+00 -4.220000e+00 4.060000e+00
    endloop
  endfacet
  facet normal 0.000000e+00 -1.000000e+00 0.000000e+00
    outer loop
      vertex 8.070000e+00 3.780000e+00 4.060000e+00
      vertex 8.070000e+00 3.780000e+00 1.450000e+01
      vertex -8.070000e+00 3.780000e+00 1.450000e+01
    endloop
  endfacet
  facet normal -0.000000e+00 -1.000000e+00 -0.000000e+00
    outer loop
      vertex -8.070000e+00 3.780000e+00 4.060000e+00
      vertex 8.070000e+00 3.780000e+00 4.060000e+00
      vertex -8.070000e+00 3.780000e+00 1.450000e+01
    endloop
  endfacet
  facet normal 0.000000e+00 0.000000e+00 1.000000e+00
    outer loop
      vertex 8.070000e+00 -4.220000e+00 4.060000e+00
      vertex 8.070000e+00 3.780000e+00 4.060000e+00
      vertex -8.070000e+00 3.780000e+00 4.060000e+00
    endloop
  endfacet
  facet normal 0.000000e+00 0.000000e+00 1.000000e+00
    outer loop
      vertex -8.070000e+00 -4.220000e+00 4.060000e+00
      vertex 8.070000e+00 -4.220000e+00 4.060000e+00
      vertex -8.070000e+00 3.780000e+00 4.060000e+00
    endloop
  endfacet
endsolid Default
